<mxfile host="app.diagrams.net" agent="Mozilla/5.0 (Windows NT 10.0; Win64; x64) AppleWebKit/537.36 (KHTML, like Gecko) Chrome/132.0.0.0 Safari/537.36" version="26.0.10">
  <diagram name="PÃ¡gina-1" id="rsMLkRhXZtfZgc0fBVkG">
    <mxGraphModel dx="1434" dy="746" grid="1" gridSize="10" guides="1" tooltips="1" connect="1" arrows="1" fold="1" page="1" pageScale="1" pageWidth="827" pageHeight="1169" math="0" shadow="0">
      <root>
        <mxCell id="0" />
        <mxCell id="1" parent="0" />
        <mxCell id="VnBSVG5nEqxoCwEyCNcH-2" value="CLIENTE&amp;nbsp;" style="rounded=1;whiteSpace=wrap;html=1;" vertex="1" parent="1">
          <mxGeometry x="350" y="350" width="120" height="60" as="geometry" />
        </mxCell>
        <mxCell id="VnBSVG5nEqxoCwEyCNcH-3" value="FECHA DE NACIOMIENTO&amp;nbsp;" style="ellipse;whiteSpace=wrap;html=1;" vertex="1" parent="1">
          <mxGeometry x="160" y="340" width="120" height="80" as="geometry" />
        </mxCell>
        <mxCell id="VnBSVG5nEqxoCwEyCNcH-4" value="MUNICIPIO" style="ellipse;whiteSpace=wrap;html=1;" vertex="1" parent="1">
          <mxGeometry x="650" y="150" width="120" height="80" as="geometry" />
        </mxCell>
        <mxCell id="VnBSVG5nEqxoCwEyCNcH-5" value="CODIGO" style="ellipse;whiteSpace=wrap;html=1;" vertex="1" parent="1">
          <mxGeometry x="220" y="520" width="120" height="80" as="geometry" />
        </mxCell>
        <mxCell id="VnBSVG5nEqxoCwEyCNcH-6" value="DUI" style="ellipse;whiteSpace=wrap;html=1;" vertex="1" parent="1">
          <mxGeometry x="170" y="250" width="120" height="80" as="geometry" />
        </mxCell>
        <mxCell id="VnBSVG5nEqxoCwEyCNcH-7" value="NOMBRE" style="ellipse;whiteSpace=wrap;html=1;" vertex="1" parent="1">
          <mxGeometry x="340" y="170" width="120" height="80" as="geometry" />
        </mxCell>
        <mxCell id="VnBSVG5nEqxoCwEyCNcH-8" value="EDAD" style="ellipse;whiteSpace=wrap;html=1;dashed=1;dashPattern=8 8;" vertex="1" parent="1">
          <mxGeometry x="160" y="440" width="120" height="80" as="geometry" />
        </mxCell>
        <mxCell id="VnBSVG5nEqxoCwEyCNcH-9" value="DIRECCION&amp;nbsp;" style="ellipse;whiteSpace=wrap;html=1;" vertex="1" parent="1">
          <mxGeometry x="510" y="240" width="120" height="80" as="geometry" />
        </mxCell>
        <mxCell id="VnBSVG5nEqxoCwEyCNcH-10" value="PRIMERAPELLIDO" style="ellipse;whiteSpace=wrap;html=1;" vertex="1" parent="1">
          <mxGeometry x="380" y="60" width="120" height="80" as="geometry" />
        </mxCell>
        <mxCell id="VnBSVG5nEqxoCwEyCNcH-11" value="PRIMERNOMBRE" style="ellipse;whiteSpace=wrap;html=1;" vertex="1" parent="1">
          <mxGeometry x="230" y="60" width="120" height="80" as="geometry" />
        </mxCell>
        <mxCell id="VnBSVG5nEqxoCwEyCNcH-12" value="COLONIA&amp;nbsp;" style="ellipse;whiteSpace=wrap;html=1;" vertex="1" parent="1">
          <mxGeometry x="500" y="110" width="120" height="80" as="geometry" />
        </mxCell>
        <mxCell id="VnBSVG5nEqxoCwEyCNcH-13" value="COMPRA" style="rhombus;whiteSpace=wrap;html=1;" vertex="1" parent="1">
          <mxGeometry x="620" y="340" width="120" height="80" as="geometry" />
        </mxCell>
        <mxCell id="VnBSVG5nEqxoCwEyCNcH-14" value="CODIGO" style="ellipse;whiteSpace=wrap;html=1;" vertex="1" parent="1">
          <mxGeometry x="970" y="170" width="120" height="80" as="geometry" />
        </mxCell>
        <mxCell id="VnBSVG5nEqxoCwEyCNcH-15" value="FECHA" style="ellipse;whiteSpace=wrap;html=1;" vertex="1" parent="1">
          <mxGeometry x="700" y="480" width="120" height="80" as="geometry" />
        </mxCell>
        <mxCell id="VnBSVG5nEqxoCwEyCNcH-16" value="VALOR" style="ellipse;whiteSpace=wrap;html=1;" vertex="1" parent="1">
          <mxGeometry x="530" y="480" width="120" height="80" as="geometry" />
        </mxCell>
        <mxCell id="VnBSVG5nEqxoCwEyCNcH-17" value="PRODUCTO" style="rounded=1;whiteSpace=wrap;html=1;" vertex="1" parent="1">
          <mxGeometry x="980" y="350" width="120" height="60" as="geometry" />
        </mxCell>
        <mxCell id="VnBSVG5nEqxoCwEyCNcH-18" value="DESCIPCION&amp;nbsp;" style="ellipse;whiteSpace=wrap;html=1;" vertex="1" parent="1">
          <mxGeometry x="1220" y="720" width="120" height="80" as="geometry" />
        </mxCell>
        <mxCell id="VnBSVG5nEqxoCwEyCNcH-19" value="PRECIO" style="ellipse;whiteSpace=wrap;html=1;" vertex="1" parent="1">
          <mxGeometry x="1230" y="330" width="120" height="80" as="geometry" />
        </mxCell>
        <mxCell id="VnBSVG5nEqxoCwEyCNcH-20" value="NOMBREDEPRODUCTO" style="ellipse;whiteSpace=wrap;html=1;" vertex="1" parent="1">
          <mxGeometry x="1181" y="190" width="149" height="80" as="geometry" />
        </mxCell>
        <mxCell id="VnBSVG5nEqxoCwEyCNcH-21" value="PERTENECE&lt;span style=&quot;white-space: pre;&quot;&gt;&#x9;&lt;/span&gt;" style="rhombus;whiteSpace=wrap;html=1;" vertex="1" parent="1">
          <mxGeometry x="980" y="520" width="120" height="80" as="geometry" />
        </mxCell>
        <mxCell id="VnBSVG5nEqxoCwEyCNcH-22" value="CODIGO" style="ellipse;whiteSpace=wrap;html=1;" vertex="1" parent="1">
          <mxGeometry x="1220" y="580" width="120" height="80" as="geometry" />
        </mxCell>
        <mxCell id="VnBSVG5nEqxoCwEyCNcH-23" value="" style="endArrow=none;html=1;rounded=0;exitX=0.408;exitY=0.05;exitDx=0;exitDy=0;exitPerimeter=0;" edge="1" parent="1" source="VnBSVG5nEqxoCwEyCNcH-2" target="VnBSVG5nEqxoCwEyCNcH-7">
          <mxGeometry width="50" height="50" relative="1" as="geometry">
            <mxPoint x="740" y="440" as="sourcePoint" />
            <mxPoint x="790" y="390" as="targetPoint" />
          </mxGeometry>
        </mxCell>
        <mxCell id="VnBSVG5nEqxoCwEyCNcH-24" value="" style="endArrow=none;html=1;rounded=0;" edge="1" parent="1" source="VnBSVG5nEqxoCwEyCNcH-7" target="VnBSVG5nEqxoCwEyCNcH-11">
          <mxGeometry width="50" height="50" relative="1" as="geometry">
            <mxPoint x="409" y="363" as="sourcePoint" />
            <mxPoint x="410" y="260" as="targetPoint" />
          </mxGeometry>
        </mxCell>
        <mxCell id="VnBSVG5nEqxoCwEyCNcH-25" value="" style="endArrow=none;html=1;rounded=0;" edge="1" parent="1" source="VnBSVG5nEqxoCwEyCNcH-7" target="VnBSVG5nEqxoCwEyCNcH-10">
          <mxGeometry width="50" height="50" relative="1" as="geometry">
            <mxPoint x="419" y="373" as="sourcePoint" />
            <mxPoint x="420" y="270" as="targetPoint" />
          </mxGeometry>
        </mxCell>
        <mxCell id="VnBSVG5nEqxoCwEyCNcH-26" value="" style="endArrow=none;html=1;rounded=0;exitX=0;exitY=0;exitDx=0;exitDy=0;" edge="1" parent="1" source="VnBSVG5nEqxoCwEyCNcH-2" target="VnBSVG5nEqxoCwEyCNcH-6">
          <mxGeometry width="50" height="50" relative="1" as="geometry">
            <mxPoint x="429" y="383" as="sourcePoint" />
            <mxPoint x="430" y="280" as="targetPoint" />
          </mxGeometry>
        </mxCell>
        <mxCell id="VnBSVG5nEqxoCwEyCNcH-27" value="" style="endArrow=none;html=1;rounded=0;exitX=0;exitY=0.25;exitDx=0;exitDy=0;" edge="1" parent="1" source="VnBSVG5nEqxoCwEyCNcH-2" target="VnBSVG5nEqxoCwEyCNcH-3">
          <mxGeometry width="50" height="50" relative="1" as="geometry">
            <mxPoint x="439" y="393" as="sourcePoint" />
            <mxPoint x="440" y="290" as="targetPoint" />
          </mxGeometry>
        </mxCell>
        <mxCell id="VnBSVG5nEqxoCwEyCNcH-28" value="" style="endArrow=none;html=1;rounded=0;exitX=0;exitY=0.5;exitDx=0;exitDy=0;" edge="1" parent="1" source="VnBSVG5nEqxoCwEyCNcH-2" target="VnBSVG5nEqxoCwEyCNcH-8">
          <mxGeometry width="50" height="50" relative="1" as="geometry">
            <mxPoint x="449" y="403" as="sourcePoint" />
            <mxPoint x="450" y="300" as="targetPoint" />
          </mxGeometry>
        </mxCell>
        <mxCell id="VnBSVG5nEqxoCwEyCNcH-29" value="" style="endArrow=none;html=1;rounded=0;exitX=0;exitY=0.75;exitDx=0;exitDy=0;entryX=0.617;entryY=0.05;entryDx=0;entryDy=0;entryPerimeter=0;" edge="1" parent="1" source="VnBSVG5nEqxoCwEyCNcH-2" target="VnBSVG5nEqxoCwEyCNcH-5">
          <mxGeometry width="50" height="50" relative="1" as="geometry">
            <mxPoint x="459" y="413" as="sourcePoint" />
            <mxPoint x="460" y="310" as="targetPoint" />
          </mxGeometry>
        </mxCell>
        <mxCell id="VnBSVG5nEqxoCwEyCNcH-30" value="" style="endArrow=none;html=1;rounded=0;" edge="1" parent="1" source="VnBSVG5nEqxoCwEyCNcH-2" target="VnBSVG5nEqxoCwEyCNcH-9">
          <mxGeometry width="50" height="50" relative="1" as="geometry">
            <mxPoint x="469" y="423" as="sourcePoint" />
            <mxPoint x="470" y="320" as="targetPoint" />
          </mxGeometry>
        </mxCell>
        <mxCell id="VnBSVG5nEqxoCwEyCNcH-31" value="" style="endArrow=none;html=1;rounded=0;exitX=1;exitY=0;exitDx=0;exitDy=0;" edge="1" parent="1" source="VnBSVG5nEqxoCwEyCNcH-9" target="VnBSVG5nEqxoCwEyCNcH-4">
          <mxGeometry width="50" height="50" relative="1" as="geometry">
            <mxPoint x="479" y="433" as="sourcePoint" />
            <mxPoint x="480" y="330" as="targetPoint" />
          </mxGeometry>
        </mxCell>
        <mxCell id="VnBSVG5nEqxoCwEyCNcH-32" value="" style="endArrow=none;html=1;rounded=0;" edge="1" parent="1" source="VnBSVG5nEqxoCwEyCNcH-9" target="VnBSVG5nEqxoCwEyCNcH-12">
          <mxGeometry width="50" height="50" relative="1" as="geometry">
            <mxPoint x="489" y="443" as="sourcePoint" />
            <mxPoint x="490" y="340" as="targetPoint" />
          </mxGeometry>
        </mxCell>
        <mxCell id="VnBSVG5nEqxoCwEyCNcH-33" value="" style="endArrow=none;html=1;rounded=0;exitX=1;exitY=0.5;exitDx=0;exitDy=0;entryX=0;entryY=0.5;entryDx=0;entryDy=0;" edge="1" parent="1" source="VnBSVG5nEqxoCwEyCNcH-2" target="VnBSVG5nEqxoCwEyCNcH-13">
          <mxGeometry width="50" height="50" relative="1" as="geometry">
            <mxPoint x="499" y="453" as="sourcePoint" />
            <mxPoint x="500" y="350" as="targetPoint" />
          </mxGeometry>
        </mxCell>
        <mxCell id="VnBSVG5nEqxoCwEyCNcH-34" value="" style="endArrow=none;html=1;rounded=0;exitX=1;exitY=0.5;exitDx=0;exitDy=0;" edge="1" parent="1" source="VnBSVG5nEqxoCwEyCNcH-13" target="VnBSVG5nEqxoCwEyCNcH-17">
          <mxGeometry width="50" height="50" relative="1" as="geometry">
            <mxPoint x="509" y="463" as="sourcePoint" />
            <mxPoint x="510" y="360" as="targetPoint" />
          </mxGeometry>
        </mxCell>
        <mxCell id="VnBSVG5nEqxoCwEyCNcH-35" value="" style="endArrow=none;html=1;rounded=0;entryX=0.5;entryY=1;entryDx=0;entryDy=0;" edge="1" parent="1" source="VnBSVG5nEqxoCwEyCNcH-16" target="VnBSVG5nEqxoCwEyCNcH-13">
          <mxGeometry width="50" height="50" relative="1" as="geometry">
            <mxPoint x="519" y="473" as="sourcePoint" />
            <mxPoint x="520" y="370" as="targetPoint" />
          </mxGeometry>
        </mxCell>
        <mxCell id="VnBSVG5nEqxoCwEyCNcH-36" value="" style="endArrow=none;html=1;rounded=0;entryX=0.5;entryY=1;entryDx=0;entryDy=0;" edge="1" parent="1" source="VnBSVG5nEqxoCwEyCNcH-15" target="VnBSVG5nEqxoCwEyCNcH-13">
          <mxGeometry width="50" height="50" relative="1" as="geometry">
            <mxPoint x="529" y="483" as="sourcePoint" />
            <mxPoint x="530" y="380" as="targetPoint" />
          </mxGeometry>
        </mxCell>
        <mxCell id="VnBSVG5nEqxoCwEyCNcH-37" value="" style="endArrow=none;html=1;rounded=0;exitX=0.5;exitY=0;exitDx=0;exitDy=0;entryX=0.608;entryY=0.963;entryDx=0;entryDy=0;entryPerimeter=0;" edge="1" parent="1" source="VnBSVG5nEqxoCwEyCNcH-17" target="VnBSVG5nEqxoCwEyCNcH-14">
          <mxGeometry width="50" height="50" relative="1" as="geometry">
            <mxPoint x="539" y="493" as="sourcePoint" />
            <mxPoint x="540" y="390" as="targetPoint" />
          </mxGeometry>
        </mxCell>
        <mxCell id="VnBSVG5nEqxoCwEyCNcH-38" value="" style="endArrow=none;html=1;rounded=0;entryX=0.5;entryY=1;entryDx=0;entryDy=0;" edge="1" parent="1" source="VnBSVG5nEqxoCwEyCNcH-21" target="VnBSVG5nEqxoCwEyCNcH-17">
          <mxGeometry width="50" height="50" relative="1" as="geometry">
            <mxPoint x="549" y="503" as="sourcePoint" />
            <mxPoint x="550" y="400" as="targetPoint" />
          </mxGeometry>
        </mxCell>
        <mxCell id="VnBSVG5nEqxoCwEyCNcH-39" value="" style="endArrow=none;html=1;rounded=0;exitX=1;exitY=0.5;exitDx=0;exitDy=0;entryX=0.017;entryY=0.675;entryDx=0;entryDy=0;entryPerimeter=0;" edge="1" parent="1" source="VnBSVG5nEqxoCwEyCNcH-17" target="VnBSVG5nEqxoCwEyCNcH-19">
          <mxGeometry width="50" height="50" relative="1" as="geometry">
            <mxPoint x="559" y="513" as="sourcePoint" />
            <mxPoint x="560" y="410" as="targetPoint" />
          </mxGeometry>
        </mxCell>
        <mxCell id="VnBSVG5nEqxoCwEyCNcH-40" value="" style="endArrow=none;html=1;rounded=0;exitX=0.5;exitY=0;exitDx=0;exitDy=0;" edge="1" parent="1" source="VnBSVG5nEqxoCwEyCNcH-17" target="VnBSVG5nEqxoCwEyCNcH-20">
          <mxGeometry width="50" height="50" relative="1" as="geometry">
            <mxPoint x="569" y="523" as="sourcePoint" />
            <mxPoint x="570" y="420" as="targetPoint" />
          </mxGeometry>
        </mxCell>
        <mxCell id="VnBSVG5nEqxoCwEyCNcH-43" value="CATEGORIA" style="rounded=1;whiteSpace=wrap;html=1;" vertex="1" parent="1">
          <mxGeometry x="980" y="660" width="120" height="60" as="geometry" />
        </mxCell>
        <mxCell id="VnBSVG5nEqxoCwEyCNcH-44" value="" style="endArrow=none;html=1;rounded=0;entryX=0.025;entryY=0.725;entryDx=0;entryDy=0;entryPerimeter=0;exitX=1;exitY=0.5;exitDx=0;exitDy=0;" edge="1" parent="1" source="VnBSVG5nEqxoCwEyCNcH-43" target="VnBSVG5nEqxoCwEyCNcH-22">
          <mxGeometry width="50" height="50" relative="1" as="geometry">
            <mxPoint x="740" y="740" as="sourcePoint" />
            <mxPoint x="790" y="690" as="targetPoint" />
          </mxGeometry>
        </mxCell>
        <mxCell id="VnBSVG5nEqxoCwEyCNcH-45" value="" style="endArrow=none;html=1;rounded=0;exitX=1;exitY=0.5;exitDx=0;exitDy=0;" edge="1" parent="1" source="VnBSVG5nEqxoCwEyCNcH-43" target="VnBSVG5nEqxoCwEyCNcH-18">
          <mxGeometry width="50" height="50" relative="1" as="geometry">
            <mxPoint x="1130" y="700" as="sourcePoint" />
            <mxPoint x="1233" y="648" as="targetPoint" />
          </mxGeometry>
        </mxCell>
        <mxCell id="VnBSVG5nEqxoCwEyCNcH-46" value="" style="endArrow=none;html=1;rounded=0;entryX=0.5;entryY=1;entryDx=0;entryDy=0;" edge="1" parent="1" source="VnBSVG5nEqxoCwEyCNcH-43" target="VnBSVG5nEqxoCwEyCNcH-21">
          <mxGeometry width="50" height="50" relative="1" as="geometry">
            <mxPoint x="740" y="740" as="sourcePoint" />
            <mxPoint x="790" y="690" as="targetPoint" />
          </mxGeometry>
        </mxCell>
        <mxCell id="VnBSVG5nEqxoCwEyCNcH-47" value="N" style="text;html=1;align=center;verticalAlign=middle;whiteSpace=wrap;rounded=0;" vertex="1" parent="1">
          <mxGeometry x="530" y="355" width="60" height="30" as="geometry" />
        </mxCell>
        <mxCell id="VnBSVG5nEqxoCwEyCNcH-48" value="M" style="text;html=1;align=center;verticalAlign=middle;whiteSpace=wrap;rounded=0;" vertex="1" parent="1">
          <mxGeometry x="790" y="355" width="60" height="30" as="geometry" />
        </mxCell>
        <mxCell id="VnBSVG5nEqxoCwEyCNcH-53" value="N" style="text;html=1;align=center;verticalAlign=middle;whiteSpace=wrap;rounded=0;" vertex="1" parent="1">
          <mxGeometry x="960" y="520" width="60" height="30" as="geometry" />
        </mxCell>
        <mxCell id="VnBSVG5nEqxoCwEyCNcH-54" value="1" style="text;html=1;align=center;verticalAlign=middle;whiteSpace=wrap;rounded=0;" vertex="1" parent="1">
          <mxGeometry x="1050" y="520" width="60" height="30" as="geometry" />
        </mxCell>
      </root>
    </mxGraphModel>
  </diagram>
</mxfile>
